<svg viewbox="0 0 1000 1000" xmlns="http://www.w3.org/2000/svg" id="svg" width="992.145" height="793.716" style="zoom: 0.6; border: 1px solid black;"><g transform="translate(10,10)"><rect width="7937.16" height="4535.5199999999995" fill="none" stroke="red"></rect><g transform="translate(5,5)"><rect stroke="blue" fill="none" width="783.716" height="443.55199999999996"></rect><line x1="97.9645" x2="97.9645" y1="0" y2="443.55199999999996" stroke="darkgreen" fill="none" class="guide"></line><line x1="195.929" x2="195.929" y1="0" y2="443.55199999999996" stroke="darkgreen" fill="none" class="guide"></line><line x1="293.8935" x2="293.8935" y1="0" y2="443.55199999999996" stroke="darkgreen" fill="none" class="guide"></line><line x1="391.858" x2="391.858" y1="0" y2="443.55199999999996" stroke="darkgreen" fill="none" class="guide"></line><line x1="489.8225" x2="489.8225" y1="0" y2="443.55199999999996" stroke="darkgreen" fill="none" class="guide"></line><line x1="587.787" x2="587.787" y1="0" y2="443.55199999999996" stroke="darkgreen" fill="none" class="guide"></line><line x1="685.7515" x2="685.7515" y1="0" y2="443.55199999999996" stroke="darkgreen" fill="none" class="guide"></line><line x1="0" x2="783.716" y1="221.77599999999998" y2="221.77599999999998" stroke="darkgreen" fill="none" class="guide"></line><g transform="translate(26.68261,37.796)"><rect width="44.59928" height="85.041" stroke="red" fill="none"></rect><circle cx="22.29964" cy="-9.07104" r="3.7796" stroke="red" fill="none"></circle><circle cx="22.29964" cy="-9.07104" r="3.7796" stroke="red" fill="none" transform="translate(0,103.18308)"></circle><circle cx="22.29964" cy="22.29964" r="22.29964" stroke="darkgreen" fill="none" class="guide"></circle></g><g transform="translate(124.64711000000001,259.572)"><rect width="44.59928" height="85.041" stroke="red" fill="none"></rect><circle cx="22.29964" cy="-9.07104" r="3.7796" stroke="red" fill="none"></circle><circle cx="22.29964" cy="-9.07104" r="3.7796" stroke="red" fill="none" transform="translate(0,103.18308)"></circle><circle cx="22.29964" cy="22.29964" r="22.29964" stroke="darkgreen" fill="none" class="guide"></circle></g><g transform="translate(222.61160999999998,37.796)"><rect width="44.59928" height="85.041" stroke="red" fill="none"></rect><circle cx="22.29964" cy="-9.07104" r="3.7796" stroke="red" fill="none"></circle><circle cx="22.29964" cy="-9.07104" r="3.7796" stroke="red" fill="none" transform="translate(0,103.18308)"></circle><circle cx="22.29964" cy="22.29964" r="22.29964" stroke="darkgreen" fill="none" class="guide"></circle></g><g transform="translate(320.57610999999997,259.572)"><rect width="44.59928" height="85.041" stroke="red" fill="none"></rect><circle cx="22.29964" cy="-9.07104" r="3.7796" stroke="red" fill="none"></circle><circle cx="22.29964" cy="-9.07104" r="3.7796" stroke="red" fill="none" transform="translate(0,103.18308)"></circle><circle cx="22.29964" cy="22.29964" r="22.29964" stroke="darkgreen" fill="none" class="guide"></circle></g><g transform="translate(418.54061,37.796)"><rect width="44.59928" height="85.041" stroke="red" fill="none"></rect><circle cx="22.29964" cy="-9.07104" r="3.7796" stroke="red" fill="none"></circle><circle cx="22.29964" cy="-9.07104" r="3.7796" stroke="red" fill="none" transform="translate(0,103.18308)"></circle><circle cx="22.29964" cy="22.29964" r="22.29964" stroke="darkgreen" fill="none" class="guide"></circle></g><g transform="translate(516.5051100000001,259.572)"><rect width="44.59928" height="85.041" stroke="red" fill="none"></rect><circle cx="22.29964" cy="-9.07104" r="3.7796" stroke="red" fill="none"></circle><circle cx="22.29964" cy="-9.07104" r="3.7796" stroke="red" fill="none" transform="translate(0,103.18308)"></circle><circle cx="22.29964" cy="22.29964" r="22.29964" stroke="darkgreen" fill="none" class="guide"></circle></g><g transform="translate(614.4696100000001,37.796)"><rect width="44.59928" height="85.041" stroke="red" fill="none"></rect><circle cx="22.29964" cy="-9.07104" r="3.7796" stroke="red" fill="none"></circle><circle cx="22.29964" cy="-9.07104" r="3.7796" stroke="red" fill="none" transform="translate(0,103.18308)"></circle><circle cx="22.29964" cy="22.29964" r="22.29964" stroke="darkgreen" fill="none" class="guide"></circle></g><g transform="translate(712.43411,259.572)"><rect width="44.59928" height="85.041" stroke="red" fill="none"></rect><circle cx="22.29964" cy="-9.07104" r="3.7796" stroke="red" fill="none"></circle><circle cx="22.29964" cy="-9.07104" r="3.7796" stroke="red" fill="none" transform="translate(0,103.18308)"></circle><circle cx="22.29964" cy="22.29964" r="22.29964" stroke="darkgreen" fill="none" class="guide"></circle></g></g><g transform="translate(5,5)"><rect stroke="blue" fill="none" width="783.716" height="443.55199999999996"></rect><circle r="17.0082" stroke="red" fill="none" transform="translate(48.98225,60.09564)"></circle><circle r="17.0082" stroke="red" fill="none" transform="translate(146.94675,281.87163999999996)"></circle><circle r="17.0082" stroke="red" fill="none" transform="translate(244.91125,60.09564)"></circle><circle r="17.0082" stroke="red" fill="none" transform="translate(342.87575,281.87163999999996)"></circle><circle r="17.0082" stroke="red" fill="none" transform="translate(440.84025,60.09564)"></circle><circle r="17.0082" stroke="red" fill="none" transform="translate(538.80475,281.87163999999996)"></circle><circle r="17.0082" stroke="red" fill="none" transform="translate(636.76925,60.09564)"></circle><circle r="17.0082" stroke="red" fill="none" transform="translate(734.73375,281.87163999999996)"></circle></g></g></svg>