<svg viewbox="0 0 1000 1000" xmlns="http://www.w3.org/2000/svg" id="svg" width="1322.86" height="944.9" style="zoom: 0.4; border: 1px solid black;"><g transform="translate(30,8)"><g transform="translate(0,476.55199999999996)"><circle r="5.6693999999999996" stroke="red" fill="none" class="cut" transform="translate(17.0082,24.5674)"></circle><circle r="5.6693999999999996" stroke="red" fill="none" class="cut" transform="translate(776.7078,24.5674)"></circle><circle r="5.6693999999999996" stroke="red" fill="none" class="cut" transform="translate(776.7078,428.98459999999994)"></circle><circle r="5.6693999999999996" stroke="red" fill="none" class="cut" transform="translate(17.0082,428.98459999999994)"></circle><rect width="793.716" height="453.55199999999996" stroke="red" fill="none" class="cut"></rect><g transform="translate(22.677599999999998,22.677599999999998)"><g transform="translate(24.472910000000002,18.898)"><rect width="44.59928" height="85.041" stroke="red" fill="none" class="cut"></rect><circle cx="22.29964" cy="-9.07104" r="3.7796" stroke="red" fill="none" class="cut"></circle><circle cx="22.29964" cy="-9.07104" r="3.7796" stroke="red" fill="none" class="cut" transform="translate(0,103.18308)"></circle></g><g transform="translate(118.01801000000002,222.99639999999997)"><rect width="44.59928" height="85.041" stroke="red" fill="none" class="cut"></rect><circle cx="22.29964" cy="-9.07104" r="3.7796" stroke="red" fill="none" class="cut"></circle><circle cx="22.29964" cy="-9.07104" r="3.7796" stroke="red" fill="none" class="cut" transform="translate(0,103.18308)"></circle></g><g transform="translate(211.56311,18.898)"><rect width="44.59928" height="85.041" stroke="red" fill="none" class="cut"></rect><circle cx="22.29964" cy="-9.07104" r="3.7796" stroke="red" fill="none" class="cut"></circle><circle cx="22.29964" cy="-9.07104" r="3.7796" stroke="red" fill="none" class="cut" transform="translate(0,103.18308)"></circle></g><g transform="translate(305.10821,222.99639999999997)"><rect width="44.59928" height="85.041" stroke="red" fill="none" class="cut"></rect><circle cx="22.29964" cy="-9.07104" r="3.7796" stroke="red" fill="none" class="cut"></circle><circle cx="22.29964" cy="-9.07104" r="3.7796" stroke="red" fill="none" class="cut" transform="translate(0,103.18308)"></circle></g><g transform="translate(398.65331000000003,18.898)"><rect width="44.59928" height="85.041" stroke="red" fill="none" class="cut"></rect><circle cx="22.29964" cy="-9.07104" r="3.7796" stroke="red" fill="none" class="cut"></circle><circle cx="22.29964" cy="-9.07104" r="3.7796" stroke="red" fill="none" class="cut" transform="translate(0,103.18308)"></circle></g><g transform="translate(492.19841,222.99639999999997)"><rect width="44.59928" height="85.041" stroke="red" fill="none" class="cut"></rect><circle cx="22.29964" cy="-9.07104" r="3.7796" stroke="red" fill="none" class="cut"></circle><circle cx="22.29964" cy="-9.07104" r="3.7796" stroke="red" fill="none" class="cut" transform="translate(0,103.18308)"></circle></g><g transform="translate(585.7435100000001,18.898)"><rect width="44.59928" height="85.041" stroke="red" fill="none" class="cut"></rect><circle cx="22.29964" cy="-9.07104" r="3.7796" stroke="red" fill="none" class="cut"></circle><circle cx="22.29964" cy="-9.07104" r="3.7796" stroke="red" fill="none" class="cut" transform="translate(0,103.18308)"></circle></g><g transform="translate(679.2886100000001,222.99639999999997)"><rect width="44.59928" height="85.041" stroke="red" fill="none" class="cut"></rect><circle cx="22.29964" cy="-9.07104" r="3.7796" stroke="red" fill="none" class="cut"></circle><circle cx="22.29964" cy="-9.07104" r="3.7796" stroke="red" fill="none" class="cut" transform="translate(0,103.18308)"></circle></g></g></g><g></g><g><circle r="5.6693999999999996" stroke="red" fill="none" class="cut" transform="translate(17.0082,24.5674)"></circle><circle r="5.6693999999999996" stroke="red" fill="none" class="cut" transform="translate(776.7078,24.5674)"></circle><circle r="5.6693999999999996" stroke="red" fill="none" class="cut" transform="translate(776.7078,428.98459999999994)"></circle><circle r="5.6693999999999996" stroke="red" fill="none" class="cut" transform="translate(17.0082,428.98459999999994)"></circle><rect width="793.716" height="453.55199999999996" stroke="red" fill="none" class="cut"></rect><g transform="translate(22.677599999999998,22.677599999999998)"><g transform="translate(46.77255,41.19764)"><circle r="9.449" transform="translate(0,94.49)" stroke="red" fill="none" class="cut"></circle><g><circle r="13.2286" stroke="red" fill="none" class="cut"></circle></g></g><g transform="translate(140.31765000000001,245.29603999999998)"><circle r="9.449" transform="translate(0,94.49)" stroke="red" fill="none" class="cut"></circle><g><circle r="13.2286" stroke="red" fill="none" class="cut"></circle></g></g><g transform="translate(233.86275,41.19764)"><circle r="9.449" transform="translate(0,94.49)" stroke="red" fill="none" class="cut"></circle><g><circle r="13.2286" stroke="red" fill="none" class="cut"></circle></g></g><g transform="translate(327.40785,245.29603999999998)"><circle r="9.449" transform="translate(0,94.49)" stroke="red" fill="none" class="cut"></circle><g><circle r="13.2286" stroke="red" fill="none" class="cut"></circle></g></g><g transform="translate(420.95295000000004,41.19764)"><circle r="9.449" transform="translate(0,94.49)" stroke="red" fill="none" class="cut"></circle><g><circle r="13.2286" stroke="red" fill="none" class="cut"></circle></g></g><g transform="translate(514.49805,245.29603999999998)"><circle r="9.449" transform="translate(0,94.49)" stroke="red" fill="none" class="cut"></circle><g><circle r="13.2286" stroke="red" fill="none" class="cut"></circle></g></g><g transform="translate(608.0431500000001,41.19764)"><circle r="9.449" transform="translate(0,94.49)" stroke="red" fill="none" class="cut"></circle><g><circle r="13.2286" stroke="red" fill="none" class="cut"></circle></g></g><g transform="translate(701.58825,245.29603999999998)"><circle r="9.449" transform="translate(0,94.49)" stroke="red" fill="none" class="cut"></circle><g><circle r="13.2286" stroke="red" fill="none" class="cut"></circle></g></g></g></g><g></g></g></svg>